<?xml version="1.0" encoding="UTF-8" standalone="no"?>
<svg
   version="1.1"
   width="48"
   height="48"
   id="svg2"
   sodipodi:docname="PMA.svg"
   inkscape:version="1.1.1 (3bf5ae0d25, 2021-09-20)"
   xmlns:inkscape="http://www.inkscape.org/namespaces/inkscape"
   xmlns:sodipodi="http://sodipodi.sourceforge.net/DTD/sodipodi-0.dtd"
   xmlns="http://www.w3.org/2000/svg"
   xmlns:svg="http://www.w3.org/2000/svg"
   xmlns:rdf="http://www.w3.org/1999/02/22-rdf-syntax-ns#"
   xmlns:cc="http://creativecommons.org/ns#"
   xmlns:dc="http://purl.org/dc/elements/1.1/">
  <sodipodi:namedview
     id="namedview31"
     pagecolor="#ffffff"
     bordercolor="#666666"
     borderopacity="1.0"
     inkscape:pageshadow="2"
     inkscape:pageopacity="0.0"
     inkscape:pagecheckerboard="0"
     showgrid="false"
     units="mm"
     inkscape:zoom="10.234811"
     inkscape:cx="23.595942"
     inkscape:cy="26.478262"
     inkscape:window-width="1920"
     inkscape:window-height="1064"
     inkscape:window-x="0"
     inkscape:window-y="16"
     inkscape:window-maximized="1"
     inkscape:current-layer="svg2" />
  <metadata
     id="metadata8">
    <rdf:RDF>
      <cc:Work
         rdf:about="">
        <dc:format>image/svg+xml</dc:format>
        <dc:type
           rdf:resource="http://purl.org/dc/dcmitype/StillImage" />
      </cc:Work>
    </rdf:RDF>
  </metadata>
  <defs
     id="defs6" />
  <g
     id="g5"
     style="fill:#a89984;fill-opacity:1"
     transform="matrix(0.02138587,0,0,0.02138587,-35.613553,0.18885297)">
    <path
       d="m 2889.39,6.3480122 -2.04,-4.07 c -1.01,-1.01 -2.03,-2.04 -4.06,-2.04 l -4.08,1.03 c -2.03,2.03 -3.05,3.05 -3.05,5.08 L 2789.64,1572.695 l 13.24,-2.035 83.46,-1523.70199 99.75,163.88 h -1.02 c 75.32,221.88 106.87,458.02 94.66,708.41003 l 6.11,9.16 98.73,175.05996 6.1,6.11 c 151.66,133.336 321.63,222.907 509.94,268.707 l 45.8,74.309 6.11,2.031 1.02,-2.031 -866.19,-1416.82599 2.04,-29.52"
       id="path14"
       style="fill:#a89984;fill-opacity:1" />
    <path
       d="m 2858.86,559.02801 c 106.87,218.84 145.54,549.62999 117.05,992.39199 l 416.29,-50.894 z"
       id="path18"
       style="fill:#a89984;fill-opacity:1" />
    <path
       d="m 3807.48,1520.881 c 42.74,-5.086 70.22,-14.246 82.44,-27.476 l -2178.16,265.656 h -1.02 c 1.02,90.586 41.73,161.836 121.12,212.723 21.37,15.269 43.77,26.465 64.12,33.59 19.34,-22.387 40.72,-38.676 66.17,-53.946 h 1.01 c 228,-138.422 566.94,-159.8 1014.78,-65.136 l 5.09,1.011 c 48.86,10.18 97.71,22.399 143.52,36.645 13.22,2.035 24.42,-2.035 33.58,-10.18 16.29,-12.215 36.65,-21.375 64.13,-27.476 v -1.02 c 72.27,-128.25 169.97,-222.906 292.12,-284.996 84.48,-41.727 182.19,-69.215 291.1,-79.395"
       id="path20"
       style="fill:#a89984;fill-opacity:1" />
    <path
       d="M 2761.15,1560.585 2860.89,31.798012 C 2716.36,589.56801 2484.29,1110.698 2165.71,1594.167 l 595.44,-33.582"
       id="path22"
       style="fill:#a89984;fill-opacity:1" />
    <path
       d="m 2200.32,329.008 -4.07,-2.04 -4.07,1.02 -2.04,5.08 -82.44,1323.188 12.21,-1.019 82.45,-1322.16901 -2.04,-4.06"
       id="path24"
       style="fill:#a89984;fill-opacity:1" />
    <path
       d="m 2084.29,1627.756 v 0 l 87.53,-1290.608 -461.08,1330.308 373.55,-39.7"
       id="path26"
       style="fill:#a89984;fill-opacity:1" />
  </g>
  <g
     id="g13"
     style="fill:#000000;stroke:#cccccc;stroke-width:12;stroke-linecap:round;stroke-linejoin:round"
     transform="matrix(0.02138587,0,0,0.02138587,-35.613553,0.18885297)">
    <path
       style="color:#000000;fill:#a89984;fill-opacity:1;stroke:none;stroke-linecap:butt;stroke-linejoin:miter;-inkscape-stroke:none"
       d="m 2409.0313,308.77344 c -21.3019,0.63505 -42.7324,7.54997 -63.502,20.01172 a 14.5,14.5 0 0 0 -4.9727,19.89257 14.5,14.5 0 0 0 19.8926,4.97461 c 23.2072,-13.92431 44.2171,-18.36767 64.9004,-14.8125 20.6833,3.55517 41.9131,15.55321 63.8477,37.96094 a 14.50145,14.50145 0 0 0 19.9824,0.70703 c 25.5538,-22.65502 49.6147,-35.00885 72.0879,-38.64453 22.4732,-3.63568 43.9111,0.92009 66.4512,14.7207 a 14.5,14.5 0 0 0 19.9375,-4.79492 14.5,14.5 0 0 0 -4.795,-19.9375 c -27.3398,-16.73936 -56.7923,-23.37705 -86.2265,-18.61523 -25.8968,4.18953 -51.3518,16.81065 -76.4356,36.92578 -22.0578,-19.99637 -45.4015,-32.68495 -69.9375,-36.90234 -7.0429,-1.21058 -14.1298,-1.69802 -21.2304,-1.48633 z"
       id="path42" />
    <path
       style="color:#000000;fill:#a89984;fill-opacity:1;stroke:none;stroke-linecap:butt;stroke-linejoin:miter;-inkscape-stroke:none"
       d="m 2476.7793,1895.6914 c -223.1969,0.2741 -398.9436,44.3349 -527.1992,132.8945 -2.726,1.883 -3.4098,5.6192 -1.5274,8.3457 1.8824,2.7267 5.6187,3.4113 8.3457,1.5293 262.123,-120.4822 520.3809,-142.7695 1042.7325,-70.3105 3.2458,0.6677 6.4182,-1.4222 7.0859,-4.668 0.6678,-3.2451 -1.4211,-6.4173 -4.666,-7.0859 -197.1282,-40.582 -372.0579,-60.8926 -524.7715,-60.7051 z"
       id="path38"
       sodipodi:nodetypes="scsccscs" />
    <path
       style="color:#000000;fill:#a89984;fill-opacity:1;stroke:none;stroke-linecap:butt;stroke-linejoin:miter;-inkscape-stroke:none"
       d="m 2296.6699,139.46875 c -22.0129,-0.59244 -44.132,5.71461 -65.1386,18.31445 a 14.5,14.5 0 0 0 -4.9766,19.89258 14.5,14.5 0 0 0 19.8945,4.97656 c 22.8911,-13.73017 43.7953,-17.2777 65.3535,-12.07812 21.5583,5.19957 44.4592,19.97049 68.1094,46.0293 a 14.50145,14.50145 0 0 0 21.377,0.10742 c 24.2095,-26.14063 47.184,-40.94675 68.6113,-46.14063 21.4272,-5.19387 42.0273,-1.66933 64.9492,12.08203 a 14.5,14.5 0 0 0 19.8945,-4.97461 14.5,14.5 0 0 0 -4.9746,-19.89453 c -27.968,-16.7786 -57.7459,-22.41509 -86.7011,-15.39648 -25.0928,6.08239 -49.0227,21.02879 -72.3321,43.65625 -22.9997,-22.64196 -46.9669,-37.59 -72.1347,-43.66016 -7.2692,-1.75323 -14.594,-2.71658 -21.9317,-2.91406 z"
       id="path44" />
  </g>
</svg>
