<?xml version="1.0" encoding="UTF-8" standalone="no"?>
<svg
   viewBox="0 0 48 47.999994"
   height="48"
   width="48"
   xml:space="preserve"
   id="svg2"
   version="1.1"
   sodipodi:docname="UL-claire.svg"
   inkscape:version="1.1.1 (3bf5ae0d25, 2021-09-20)"
   xmlns:inkscape="http://www.inkscape.org/namespaces/inkscape"
   xmlns:sodipodi="http://sodipodi.sourceforge.net/DTD/sodipodi-0.dtd"
   xmlns="http://www.w3.org/2000/svg"
   xmlns:svg="http://www.w3.org/2000/svg"
   xmlns:rdf="http://www.w3.org/1999/02/22-rdf-syntax-ns#"
   xmlns:cc="http://creativecommons.org/ns#"
   xmlns:dc="http://purl.org/dc/elements/1.1/"><sodipodi:namedview
     id="namedview30"
     pagecolor="#ffffff"
     bordercolor="#666666"
     borderopacity="1.0"
     inkscape:pageshadow="2"
     inkscape:pageopacity="0.0"
     inkscape:pagecheckerboard="0"
     showgrid="false"
     inkscape:zoom="3.5986502"
     inkscape:cx="21.396912"
     inkscape:cy="-14.17198"
     inkscape:window-width="960"
     inkscape:window-height="1062"
     inkscape:window-x="0"
     inkscape:window-y="16"
     inkscape:window-maximized="0"
     inkscape:current-layer="g12" /><metadata
     id="metadata8"><rdf:RDF><cc:Work
         rdf:about=""><dc:format>image/svg+xml</dc:format><dc:type
           rdf:resource="http://purl.org/dc/dcmitype/StillImage" /></cc:Work></rdf:RDF></metadata><defs
     id="defs6"><inkscape:path-effect
       effect="powerclip"
       id="path-effect1353"
       is_visible="true"
       lpeversion="1"
       inverse="true"
       flatten="false"
       hide_clip="false"
       message="Utilise la règle de remplissage « fill-rule: evenodd » de la boîte de dialogue &lt;b&gt;Fond et contour&lt;/b&gt; en l'absence de résultat de mise à plat après une conversion en chemin." /><clipPath
       clipPathUnits="userSpaceOnUse"
       id="clipPath1349"><path
         id="lpe_path-effect1353"
         style="fill:#ffffff;fill-opacity:1;fill-rule:nonzero;stroke:none;stroke-width:0.42844"
         class="powerclip"
         d="M 562.285,1053.2552 H 930.97255 V 1421.95 H 562.285 Z m 181.65424,131.9004 c 4.71455,-18.5052 13.36946,-33.6844 25.43004,-45.1756 -12.03059,-5.8606 -24.22998,-8.5118 -40.27119,-8.5118 -52.88745,0 -83.22097,32.5867 -83.22097,89.3935 v 107.2942 h 55.38739 v -106.523 c 0,-33.1706 10.65058,-39.823 27.83358,-39.823 5.89919,0 10.84296,1.1701 14.84115,3.3457" /></clipPath></defs><g
     transform="matrix(1.3333333,0,0,-1.3333333,-75.637998,188.92666)"
     id="g10"><g
       transform="scale(0.1)"
       id="g12"><g
         id="g1545"><path
           id="path2254"
           style="fill:#a89984;fill-opacity:1;fill-rule:nonzero;stroke:none;stroke-width:0.42844"
           d="m 925.97255,1237.5876 c 0.97653,-70.5189 -44.35624,-138.5209 -109.53418,-165.2371 -64.03836,-27.8951 -143.58967,-13.4577 -193.54695,35.4304 -50.62243,47.0348 -69.09308,124.5246 -45.46632,189.4099 22.846,67.2631 88.91749,116.8613 159.97918,119.5258 69.0771,4.4655 138.11591,-35.5839 168.94771,-97.4755 12.92103,-25.1458 19.66357,-53.3885 19.62056,-81.6535 z"
           clip-path="url(#clipPath1349)"
           inkscape:original-d="m 925.97255,1237.5876 c 0.97653,-70.5189 -44.35624,-138.5209 -109.53418,-165.2371 -64.03836,-27.8951 -143.58967,-13.4577 -193.54695,35.4304 -50.62243,47.0348 -69.09308,124.5246 -45.46632,189.4099 22.846,67.2631 88.91749,116.8613 159.97918,119.5258 69.0771,4.4655 138.11591,-35.5839 168.94771,-97.4755 12.92103,-25.1458 19.66357,-53.3885 19.62056,-81.6535 z" /></g><path
         id="path60"
         style="opacity:1;fill:#000000;fill-opacity:0.51364934;fill-rule:nonzero;stroke:none;stroke-width:0.42844"
         d="m 813.10869,1221.6496 v 106.5277 h -55.3844 v -107.2989 c 0,-56.7935 30.35067,-89.3883 83.22012,-89.3883 h 21.94897 v 50.3314 h -21.94897 c -17.18043,0 -27.83572,6.6592 -27.83572,39.8281" /><path
         id="path60-3"
         style="opacity:0.909364;fill:#ffffff;fill-opacity:1;fill-rule:nonzero;stroke:none;stroke-width:0.42844"
         d="m 697.51451,853.62884 v 106.5277 h -55.3844 v -107.2989 c 0,-56.7935 30.35067,-89.3883 83.22012,-89.3883 h 21.94897 v 50.3314 h -21.94897 c -17.18043,0 -27.83572,6.6592 -27.83572,39.8281"
         inkscape:transform-center-x="-1.568594"
         inkscape:transform-center-y="-23.202144" /></g></g></svg>
